<?xml version="1.0" encoding="UTF-8"?><svg id="_レイヤー_2" xmlns="http://www.w3.org/2000/svg" viewBox="0 0 825.94 147.33"><defs><style>.cls-1{fill:#0ebea5;}.cls-2{fill:#212121;}</style></defs><g id="_レイヤー_1-2"><path class="cls-2" d="m90.6,142.53v-47.55h-40.8v47.55H0V4.23h49.8v47.55h40.8V4.23h49.8v138.3h-49.8Z"/><path class="cls-2" d="m235.8,147.33c-41.4,0-75.3-28.8-75.3-72.9S194.4,1.83,235.8,1.83s75,28.8,75,72.6-34.2,72.9-75,72.9Zm0-99.9c-12.3,0-22.8,10.8-22.8,27.6s10.5,27.3,22.8,27.3,22.5-10.5,22.5-27.3-10.5-27.6-22.5-27.6Z"/><path class="cls-1" d="m351.28,52.18c-7.2,0-21.6-14.4-21.6-21.3s14.4-21.6,21.6-21.6,21.6,14.7,21.6,21.6-14.7,21.3-21.6,21.3Z"/><path class="cls-1" d="m351.28,139.88c-7.2,0-21.6-14.7-21.6-21.6s14.4-21.3,21.6-21.3,21.6,14.4,21.6,21.3-14.7,21.6-21.6,21.6Z"/><path class="cls-2" d="m480.56,44.13v98.4h-49.5V44.13h-39.3V4.23h128.1v39.9h-39.3Z"/><path class="cls-2" d="m532.84,73.53c0-43.2,30.6-71.7,72.6-71.7,38.4,0,63.3,24.6,63.3,57.9,0,7.5-.9,11.1-2.1,15.9l-20.1,12.9h-63.9c5.1,12.6,18,17.7,39,17.7,16.8,0,29.4-3.3,38.1-8.7l-4.5,42.3c-10.8,4.8-25.2,7.5-43.2,7.5-46.2,0-79.2-28.8-79.2-73.8Zm50.1-16.8h37.2c0-.9.3-1.8.3-2.7,0-8.1-6.6-15.9-16.2-15.9-8.1,0-17.1,4.5-21.3,18.6Z"/><path class="cls-2" d="m756.34,0c36.9,0,69.6,21.3,69.6,59.1v83.43h-49.8V62.1c0-13.8-11.1-19.5-20.4-19.5s-20.4,5.7-20.4,19.2v80.73h-48.9V59.1c0-37.8,32.7-59.1,69.9-59.1Z"/></g></svg>